<?xml version="1.0" standalone="no"?>
<!DOCTYPE svg PUBLIC "-//W3C//DTD SVG 20010904//EN"
 "http://www.w3.org/TR/2001/REC-SVG-20010904/DTD/svg10.dtd">
<svg version="1.0" xmlns="http://www.w3.org/2000/svg"
 width="300.000000pt" height="300.000000pt" viewBox="0 0 300.000000 300.000000"
 preserveAspectRatio="xMidYMid meet">
<metadata>
Created by potrace 1.10, written by Peter Selinger 2001-2011
</metadata>
<g transform="translate(0.000000,300.000000) scale(0.100000,-0.100000)"
fill="#4ba225" stroke="none">
<path d="M440 2968 c-29 -15 -56 -40 -77 -72 l-33 -48 0 -1348 0 -1348 33 -48
c21 -32 48 -57 77 -71 l44 -23 1016 0 1016 0 44 23 c29 14 56 39 78 71 l32 48
0 1052 0 1051 -368 368 -367 367 -725 0 -726 0 -44 -22z m1270 -459 c0 -320 4
-344 70 -409 65 -66 89 -70 410 -70 l270 0 -2 -833 -3 -833 -28 -42 c-15 -23
-46 -54 -69 -69 l-42 -28 -816 0 -816 0 -42 28 c-23 15 -54 46 -69 69 l-28 42
-3 1115 c-2 737 1 1128 7 1151 14 49 63 104 113 129 42 21 54 21 546 21 l502
0 0 -271z"/>
<path d="M812 1915 c-76 -33 -77 -147 -2 -186 31 -17 61 -19 313 -19 314 0
335 4 364 64 22 47 9 101 -30 130 -27 20 -42 21 -320 23 -237 2 -298 0 -325
-12z"/>
<path d="M813 1490 c-13 -5 -32 -24 -43 -42 -28 -45 -21 -94 20 -130 l30 -28
679 0 679 0 30 25 c17 14 33 39 37 55 8 38 -21 100 -55 117 -30 15 -1340 18
-1377 3z"/>
<path d="M790 1043 c-57 -51 -42 -147 26 -173 40 -16 1342 -13 1374 3 34 17
63 79 55 117 -4 16 -20 41 -37 55 l-30 25 -679 0 -679 0 -30 -27z"/>
<path d="M835 643 c-97 -25 -111 -161 -21 -198 53 -22 1319 -22 1372 0 71 29
81 138 16 181 -26 18 -61 19 -687 20 -363 1 -669 0 -680 -3z"/>
</g>
</svg>